# xmcd
#
# Track frame offsets:
# 150
# 23332
# 35988
# 48302
# 75847
# 89000
# 105444
# 118871
# 138359
# 159344
# 169030
# 181193
# 198314
# 206476
# 230467
# 245804
# 273389
# 288973
# 298744
# 311796
# 319638
#
# Disc length: 4490 seconds
#
# Revision: 0
# Processed by: cddbd v1.5.2PL0 Copyright (c) Steve Scherf et al.
# Submitted via: Audion 3.0.2 (http://www.panic.com/audion/)
#
DISCID=24118815
DTITLE=FREESTYLE - LANTERN
DYEAR=1900
DGENRE=
TTITLE0=STYLES
TTITLE1=YUNG
TTITLE2=HELL RELL
TTITLE3=WYCLEF
TTITLE4=FAB
TTITLE5=JOE
TTITLE6=GILLIE
TTITLE7=JOEL
TTITLE8=PAUL
TTITLE9=KARDINAL
TTITLE10=COLLIE
TTITLE11=FAB MIKE JO
TTITLE12=UNCLE MURDAH
TTITLE13=PEEDI
TTITLE14=SWIZZ
TTITLE15=STYLES 
TTITLE16=STYLES BEANI
TTITLE17=FEVER
TTITLE18=GILLIE
TTITLE19=TWISTA
TTITLE20=SAIGON
EXTD=
EXTT0=
EXTT1=
EXTT2=
EXTT3=
EXTT4=
EXTT5=
EXTT6=
EXTT7=
EXTT8=
EXTT9=
EXTT10=
EXTT11=
EXTT12=
EXTT13=
EXTT14=
EXTT15=
EXTT16=
EXTT17=
EXTT18=
EXTT19=
EXTT20=
PLAYORDER=
